<svg data-v-fde0c5aa="" xmlns="http://www.w3.org/2000/svg" viewBox="15 60 270 185" class="iconAbove"><!---->
    <defs data-v-fde0c5aa=""><!---->
    </defs>
    <rect data-v-fde0c5aa="" fill="#d5e6f3" x="15" y="60" width="270px" height="185px" class="logo-background-square">
    </rect>
    <defs data-v-fde0c5aa=""><!---->
    </defs>
    <g data-v-fde0c5aa="" id="952c49b8-67e1-4891-aa50-0c034aea8ca7" fill="#022239" transform="matrix(4.3318893371712495,0,0,4.3318893371712495,15.14828392171217,160.7977339096776)">
        <path d="M6.57 13.87C5.52 14.10 3.92 14.32 2.60 14.35L2.59 10.30L5.94 10.30C5.99 10.08 6.01 9.81 5.94 9.56L2.59 9.56L2.58 5.99C3.89 6.02 5.12 6.17 6.29 6.43C6.65 6.27 6.80 5.31 6.43 5.31L2.23 5.31C1.68 5.31 1.41 5.38 1.12 5.64C1.27 6.09 1.32 6.59 1.32 7.15L1.32 14.32C1.32 14.77 1.62 15.02 2.06 15.02L6.50 15.02C6.93 15.02 6.90 14.08 6.57 13.87ZM13.37 12.63C13.26 12.60 13.15 12.59 13.01 12.59C13.12 12.75 13.19 13.02 13.09 13.27C12.99 13.62 12.68 13.93 12.04 13.94L9.38 14.01L13.40 9.10C13.68 8.75 13.72 8.48 13.72 8.09L13.55 7.78C13.24 7.88 12.80 7.88 12.25 7.88L9.79 7.83C8.53 7.80 7.97 8.36 7.97 9.04C7.97 9.41 8.20 9.91 8.72 10.07C8.83 10.12 8.96 10.12 9.07 10.11C8.96 9.91 8.92 9.69 9.03 9.45C9.14 9.18 9.42 8.93 9.94 8.90L12.59 8.78L8.33 13.93C8.08 14.21 8.01 14.48 8.01 14.84L8.18 15.13C8.58 15.02 9.10 15.01 9.51 15.02L12.33 15.06C13.47 15.08 14.11 14.52 14.11 13.76C14.11 13.40 13.93 12.80 13.37 12.63ZM16.45 15.02L18.55 15.02C21.13 15.02 22.62 13.57 22.62 10.09C22.62 6.78 21.13 5.17 18.49 5.17C17.65 5.17 16.28 5.18 15.54 5.26C15.69 5.71 15.68 6.47 15.68 7.01L15.71 14.34C15.71 14.76 15.99 15.02 16.45 15.02ZM16.97 14.48L16.95 5.71L18.49 5.71C20.29 5.71 21.21 7.07 21.21 10.16C21.21 13.29 20.29 14.48 18.49 14.48ZM29.74 13.17C29.44 13.93 28.66 14.36 27.65 14.36C26.43 14.36 25.49 13.72 25.37 11.79C25.86 11.84 26.35 11.87 26.85 11.87C28.78 11.87 30.00 11.14 30.00 9.74C30.00 8.40 28.90 7.70 27.38 7.70C25.19 7.70 24.00 9.16 24.00 11.48C24.00 13.90 25.28 15.20 27.33 15.20C28.53 15.20 29.50 14.76 29.85 13.89C30.04 13.43 29.92 13.24 29.74 13.17ZM27.33 8.23C27.97 8.23 28.64 8.51 28.64 9.56C28.64 11.00 27.52 11.33 26.29 11.33C25.97 11.31 25.65 11.30 25.35 11.27C25.37 9.28 26.14 8.23 27.33 8.23ZM38.07 13.92C37.95 14.10 37.76 14.18 37.62 14.18C37.30 14.18 37.13 13.94 37.13 13.44L37.13 10.72C37.13 8.64 36.23 7.70 34.27 7.70C32.59 7.70 31.53 8.29 31.53 9.39C31.53 10.04 31.95 10.64 32.65 10.64C32.91 10.64 33.21 10.56 33.39 10.35C32.96 10.18 32.80 9.72 32.80 9.35C32.80 8.50 33.50 8.23 34.16 8.23C35.38 8.23 35.83 9.04 35.83 10.65L35.83 11.00C35.15 10.98 34.33 11.05 33.54 11.26C32.24 11.62 31.21 12.36 31.21 13.55C31.21 14.55 31.88 15.18 32.97 15.18C34.26 15.18 35.32 14.34 35.90 13.09L35.90 13.31C35.90 14.62 36.34 15.16 37.18 15.16C37.77 15.16 38.22 14.83 38.22 14.39C38.22 14.25 38.18 14.08 38.07 13.92ZM33.57 14.31C32.86 14.34 32.59 13.82 32.59 13.27C32.59 12.57 33.05 12.07 33.81 11.77C34.36 11.54 35.22 11.45 35.87 11.48C35.84 12.96 34.59 14.27 33.57 14.31ZM40.82 15.16C41.38 15.16 41.87 14.85 41.87 14.39C41.87 14.25 41.83 14.08 41.71 13.92C41.62 14.10 41.40 14.18 41.22 14.18C40.87 14.18 40.68 13.93 40.68 13.44L40.70 7.81C40.70 6.43 40.71 5.67 40.89 5.08C40.78 4.97 40.53 4.79 40.17 4.79C39.73 4.79 39.42 5.04 39.42 5.49L39.42 13.52C39.42 14.55 39.94 15.16 40.82 15.16ZM45.39 5.12C44.25 5.12 43.65 5.28 43.30 5.45C43.46 5.91 43.50 6.71 43.50 7.01L43.50 14.49C43.50 14.92 43.81 15.19 44.24 15.19C44.60 15.19 44.87 15.01 44.98 14.90C44.81 14.48 44.79 13.72 44.79 13.40L44.79 11.17L45.15 11.17C47.98 11.17 49.45 10.09 49.45 7.99C49.45 6.01 48.10 5.12 45.39 5.12ZM45.16 10.64L44.79 10.64L44.79 5.70C44.91 5.67 45.11 5.67 45.36 5.67C47.29 5.67 48.05 6.52 48.05 8.08C48.05 9.72 47.21 10.64 45.16 10.64ZM57.33 13.92C57.22 14.10 57.02 14.18 56.88 14.18C56.56 14.18 56.39 13.94 56.39 13.44L56.39 10.72C56.39 8.64 55.50 7.70 53.54 7.70C51.86 7.70 50.79 8.29 50.79 9.39C50.79 10.04 51.21 10.64 51.91 10.64C52.18 10.64 52.47 10.56 52.65 10.35C52.22 10.18 52.07 9.72 52.07 9.35C52.07 8.50 52.77 8.23 53.42 8.23C54.64 8.23 55.09 9.04 55.09 10.65L55.09 11.00C54.42 10.98 53.59 11.05 52.81 11.26C51.51 11.62 50.47 12.36 50.47 13.55C50.47 14.55 51.14 15.18 52.23 15.18C53.52 15.18 54.59 14.34 55.16 13.09L55.16 13.31C55.16 14.62 55.61 15.16 56.45 15.16C57.04 15.16 57.48 14.83 57.48 14.39C57.48 14.25 57.44 14.08 57.33 13.92ZM52.84 14.31C52.12 14.34 51.86 13.82 51.86 13.27C51.86 12.57 52.32 12.07 53.07 11.77C53.62 11.54 54.49 11.45 55.13 11.48C55.10 12.96 53.86 14.27 52.84 14.31ZM60.09 15.16C60.65 15.16 61.14 14.85 61.14 14.39C61.14 14.25 61.10 14.08 60.97 13.92C60.89 14.10 60.66 14.18 60.48 14.18C60.13 14.18 59.95 13.93 59.95 13.44L59.96 7.81C59.96 6.43 59.98 5.67 60.16 5.08C60.05 4.97 59.79 4.79 59.43 4.79C59.00 4.79 58.69 5.04 58.69 5.49L58.69 13.52C58.69 14.55 59.21 15.16 60.09 15.16Z">
        </path>
    </g>
    <defs data-v-fde0c5aa="">
        <linearGradient data-v-fde0c5aa="" gradientTransform="rotate(25)" id="756ab9ee-1ccc-4d08-826a-c1162c2e72e7" x1="0%" y1="0%" x2="100%" y2="0%">
            <stop data-v-fde0c5aa="" offset="0%" stop-color="#000A68" stop-opacity="1">
            </stop>
            <stop data-v-fde0c5aa="" offset="100%" stop-color="#00C4EE" stop-opacity="1">
            </stop>
        </linearGradient>
    </defs>
    <g data-v-fde0c5aa="" id="b39a489b-9b74-4c0a-8275-86d1ec78b75c" stroke="none" fill="url(#756ab9ee-1ccc-4d08-826a-c1162c2e72e7)" transform="matrix(2.5071563603005163,0,0,2.5071563603005163,24.639680987857272,-6.906554574074335)">
        <path d="M46.938 58.73l1.768-1.975-15.955-11.912 1.59-3.508 3.531-3.88-.711-5.271-3.499-.094-5.148 4.343-4.394 1.009-5.924 4.089-13.323-2.136-2.896 16.896 2.84 4.511 9.361 1.504 1.06-2.427 12.76 5.802 10.401 2.306.919-1.89 1.75.273 2.362-1.337-.014-1.253 2.577.584 2.25-1.505.746-2.601-2.051-1.528zM8.192 55.203c-.101.583-.609 1.021-1.187 1.021a1.127 1.127 0 0 1-.923-.473 1.18 1.18 0 0 1-.203-.9c.101-.579.608-1.021 1.184-1.019a1.107 1.107 0 0 1 .924.475c.187.255.257.577.205.896zm38.511 6.531l-1.067.719-3.703-.843-7.914-4.002-.201.399 7.787 3.937.021 2.05-.9.509-1.858-.288h-.002l-6.68-3.006-.181.408 6.156 2.774-.752 1.542-8.842-1.959-12.529-5.694-.009-.221.139-.312 2.458-14.345 6.229-4.292 4.479-1.03 4.958-4.187 1.299.038.397 2.938-3.16 3.47-2.114 4.667-2.864-2.027-.258.366 3.139 2.222L46.068 57.02l-1.537 1.717-9.207-5.154-.218.388 9.839 5.508v.002l1.981 1.474-.223.779zM95.333 39.667l-13.345 1.976-5.877-4.161-4.38-1.061-5.094-4.407-3.499.049-.776 5.266 3.478 3.92 1.55 3.527-16.098 11.717 1.745 1.996-2.072 1.501.719 2.612 2.228 1.532 2.59-.553-.032 1.252 2.346 1.363 1.748-.248.898 1.901 10.429-2.179 12.833-5.644 1.025 2.438 9.382-1.388 2.894-4.479-2.692-16.93zM83.94 58.417l-12.599 5.542-8.867 1.85-.733-1.552 6.033-2.629 1.099 1.414.353-.276-1.311-1.684-6.874 2.994h-.003l-1.859.265-.896-.521.047-2.053 7.436-3.646c.281.501.8 1.256.829 1.294l.368-.255c-.007-.011-.566-.82-.829-1.298l-.004-.005a1.115 1.115 0 0 1-.065-.129c-.023-.037-.039-.08-.057-.127 0 0-.005 0-.005-.004-.218-.499-.526-1.458-.53-1.471l-.425.139c.014.041.299.925.522 1.459l-7.564 3.707-3.716.795-1.055-.726-.216-.787 2.003-1.452.002-.003 9.582-5.234-.808-2.423-.423.139.69 2.07-8.625 4.712-1.516-1.732 15.28-11.119c.549.929 1.935 3.139 3.499 4.759 2.023 2.096 4.641 3.54 4.665 3.554l.214-.39c-.025-.017-2.584-1.43-4.555-3.474-1.56-1.608-3.422-4.743-3.422-4.743l-2.244-5.102-3.11-3.509.431-2.937 1.298-.018 4.908 4.246 4.468 1.083 6.175 4.372 2.27 14.264.015.107.132.316-.008.218zm9.989-2.408c-.184.246-.45.405-.753.449a1 1 0 0 1-.168.015c-.582-.001-1.091-.448-1.187-1.037a1.167 1.167 0 0 1 .217-.895 1.108 1.108 0 0 1 .913-.464 1.226 1.226 0 0 1 1.187 1.037c.051.322-.024.637-.209.895z">
        </path>
        <path d="M66.129 57.857a1.115 1.115 0 0 1-.065-.129c-.023-.037-.039-.08-.057-.127l.122.256z">
        </path>
    </g><!---->
</svg>
